<svg width="635" height="543" viewBox="0 0 635 543" fill="none" xmlns="http://www.w3.org/2000/svg">
<path d="M244.273 502.514C244.274 503.716 243.298 504.692 242.096 504.693C240.894 504.693 239.918 503.718 239.918 502.516C239.917 501.314 240.892 500.338 242.094 500.337C243.296 500.351 244.272 501.312 244.273 502.514Z" fill="#7ED4EF"/>
<path d="M419.631 18.7558C420.834 18.7552 421.809 17.7798 421.808 16.5771C421.808 15.3744 420.832 14.3998 419.629 14.4004C418.427 14.4009 417.452 15.3763 417.453 16.579C417.453 17.7818 418.429 18.7563 419.631 18.7558Z" fill="white"/>
<path d="M533.041 143.839C536.954 143.837 540.124 140.664 540.123 136.751C540.121 132.838 536.948 129.668 533.035 129.67C529.122 129.671 525.952 132.845 525.953 136.757C525.955 140.67 529.129 143.841 533.041 143.839Z" fill="url(#paint0_linear_3_24)"/>
<path d="M533.043 148.887C539.744 148.884 545.174 143.45 545.171 136.749C545.168 130.048 539.733 124.618 533.032 124.621C526.332 124.624 520.902 130.059 520.905 136.76C520.908 143.46 526.342 148.89 533.043 148.887Z" stroke="url(#paint1_linear_3_24)" stroke-miterlimit="10"/>
<path d="M379.255 485.965C379.258 490.703 375.413 494.551 370.676 494.553C365.939 494.555 362.09 490.71 362.088 485.973C362.086 481.236 365.931 477.388 370.668 477.386C375.405 477.384 379.253 481.214 379.255 485.965Z" stroke="url(#paint2_linear_3_24)" stroke-miterlimit="10"/>
<path d="M567.276 174.99C576.617 174.986 584.186 167.41 584.181 158.07C584.177 148.729 576.602 141.161 567.261 141.165C557.921 141.169 550.352 148.744 550.356 158.085C550.36 167.426 557.936 174.994 567.276 174.99Z" fill="url(#paint3_linear_3_24)"/>
<path d="M90.0067 341.588C90.0087 345.915 86.5033 349.423 82.1761 349.425C77.849 349.427 74.3404 345.922 74.3385 341.595C74.3366 337.268 77.842 333.759 82.1691 333.757C86.4962 333.755 90.0048 337.261 90.0067 341.588Z" fill="url(#paint4_linear_3_24)"/>
<path d="M482.221 117.276L494.828 102.239" stroke="url(#paint5_linear_3_24)" stroke-miterlimit="10"/>
<path d="M486.097 120.513L505.898 96.9026" stroke="url(#paint6_linear_3_24)" stroke-miterlimit="10"/>
<path d="M482.228 133.001L502.566 108.726" stroke="url(#paint7_linear_3_24)" stroke-miterlimit="10"/>
<path d="M97.4937 292.459L110.087 277.421" stroke="url(#paint8_linear_3_24)" stroke-miterlimit="10"/>
<path d="M101.356 295.709L121.157 272.085" stroke="url(#paint9_linear_3_24)" stroke-miterlimit="10"/>
<path d="M97.5006 308.183L117.824 283.908" stroke="url(#paint10_linear_3_24)" stroke-miterlimit="10"/>
<path d="M518.029 376.395L534.113 357.184" stroke="url(#paint11_linear_3_24)" stroke-miterlimit="10"/>
<path d="M522.966 380.536L548.251 350.362" stroke="url(#paint12_linear_3_24)" stroke-miterlimit="10"/>
<path d="M518.038 396.475L544.016 365.48" stroke="url(#paint13_linear_3_24)" stroke-miterlimit="10"/>
<g opacity="0.5">
<path opacity="0.5" d="M491.775 41.179L472.892 62.2434" stroke="url(#paint14_linear_3_24)" stroke-miterlimit="10"/>
<path opacity="0.5" d="M497.193 46.0412L467.54 79.1302" stroke="url(#paint15_linear_3_24)" stroke-miterlimit="10"/>
<path opacity="0.5" d="M514.215 37.9732L483.742 71.9676" stroke="url(#paint16_linear_3_24)" stroke-miterlimit="10"/>
</g>
<path d="M90.0184 367.452L113.975 338.862" stroke="url(#paint17_linear_3_24)" stroke-miterlimit="10"/>
<path d="M97.3747 373.614L135.012 328.713" stroke="url(#paint18_linear_3_24)" stroke-miterlimit="10"/>
<path d="M90.0321 397.346L128.687 351.2" stroke="url(#paint19_linear_3_24)" stroke-miterlimit="10"/>
<path d="M135.002 305.451C137.602 305.45 139.71 303.341 139.708 300.74C139.707 298.14 137.598 296.032 134.997 296.034C132.397 296.035 130.289 298.144 130.291 300.745C130.292 303.345 132.401 305.453 135.002 305.451Z" fill="#7ED4EF"/>
<path d="M138.14 399.615C138.142 402.217 136.036 404.325 133.434 404.326C130.832 404.327 128.724 402.221 128.723 399.619C128.721 397.017 130.827 394.909 133.429 394.908C136.031 394.907 138.139 397.013 138.14 399.615Z" fill="#7ED4EF"/>
<path d="M113.376 171.248C113.377 172.45 112.401 173.426 111.199 173.427C109.997 173.427 109.021 172.452 109.021 171.25C109.02 170.048 109.995 169.072 111.197 169.071C112.399 169.085 113.375 170.046 113.376 171.248Z" fill="white"/>
<path d="M530.96 234.003C532.163 234.002 533.138 233.027 533.137 231.824C533.137 230.621 532.161 229.647 530.958 229.647C529.756 229.648 528.781 230.623 528.782 231.826C528.782 233.029 529.758 234.003 530.96 234.003Z" fill="#7ED4EF"/>
<path d="M552.64 427.824C552.641 429.026 551.666 430.002 550.464 430.003C549.262 430.003 548.285 429.028 548.285 427.826C548.284 426.624 549.26 425.648 550.462 425.647C551.664 425.661 552.64 426.622 552.64 427.824Z" fill="white"/>
<path d="M89.917 141.662C92.5176 141.66 94.6249 139.551 94.6238 136.951C94.6226 134.35 92.5134 132.242 89.9127 132.244C87.3121 132.245 85.2047 134.354 85.2059 136.955C85.207 139.555 87.3163 141.663 89.917 141.662Z" fill="#7ED4EF"/>
<path d="M218.272 450.02C218.273 452.622 216.167 454.73 213.565 454.731C210.963 454.732 208.855 452.626 208.854 450.024C208.853 447.423 210.959 445.315 213.561 445.313C216.163 445.312 218.271 447.418 218.272 450.02Z" fill="#7ED4EF"/>
<path d="M522.769 447.041C522.77 449.643 520.664 451.751 518.062 451.752C515.46 451.753 513.352 449.647 513.351 447.045C513.35 444.443 515.456 442.335 518.058 442.334C520.66 442.333 522.768 444.439 522.769 447.041Z" fill="#7ED4EF"/>
<path d="M603.325 307.956C603.326 310.558 601.22 312.666 598.618 312.667C596.016 312.668 593.908 310.562 593.907 307.96C593.906 305.358 596.012 303.25 598.614 303.249C601.216 303.234 603.324 305.354 603.325 307.956Z" fill="#7ED4EF"/>
<path d="M37.2874 243.642C39.888 243.64 41.9953 241.531 41.9942 238.93C41.993 236.33 39.8838 234.222 37.2831 234.224C34.6825 234.225 32.5751 236.334 32.5763 238.935C32.5775 241.535 34.6867 243.643 37.2874 243.642Z" fill="#7ED4EF"/>
<path d="M170.562 454.85L183.574 460.132L189.42 439.908L170.562 454.85Z" fill="#FF7E3D"/>
<path d="M135.061 437.981L145.651 464.986L186.234 429.417L135.061 437.981Z" fill="url(#paint20_linear_3_24)"/>
<path d="M593.229 215.408L587.571 243.862L541.346 216.011L593.229 215.408Z" fill="#EF5350"/>
<path d="M126.512 107.424L109.308 119.494L130.015 130.189L126.512 107.424Z" fill="#EF5350"/>
<path d="M548.324 263.196L528.764 255.526L531.291 278.688L548.324 263.196Z" fill="url(#paint21_linear_3_24)"/>
<path d="M369.024 57.157C350 46.588 326.437 39.6412 304.833 45.8447C288.064 50.6601 275.413 63.1948 265.86 77.3118C255.106 93.1971 247.534 111.004 239.51 128.359C234.593 138.981 229.238 149.193 222.059 158.501C214.342 168.516 205.155 177.401 194.906 184.787C184.303 192.414 172.626 198.373 160.24 202.493C146.115 207.195 131.438 209.803 116.945 213.09C93.1194 218.517 67.8531 226.942 52.2645 247.001C45.3677 255.871 41.2716 266.62 41.0928 277.89C40.9 289.458 44.6101 300.854 50.4548 310.75C63.715 333.242 86.7565 346.1 110.8 354.334C136.541 363.146 163.708 367.334 188.912 377.787C201.5 383.014 213.551 389.867 223.539 399.238C233.441 408.538 241.097 419.862 247.904 431.539C260.74 453.593 271.074 477.643 289.564 495.778C298.095 504.145 308.294 510.914 319.806 514.359C331.375 517.805 343.734 517.799 355.484 515.291C410.7 503.487 435.252 447.831 457.49 402.131C469.922 376.587 483.713 351.72 504.675 332.126C524.917 313.21 549.077 298.775 567.946 278.347C584.71 260.211 597.313 236.986 594.346 211.575C591.521 187.424 576.48 166.063 558.033 150.955C536.785 133.557 510.507 123.387 484.992 114.037C471.301 109.023 457.441 104.349 444.146 98.3304C431.02 92.3829 418.403 85.417 405.942 78.2107C399.987 74.7629 394.074 71.2586 388.133 67.7826C381.825 64.0946 375.276 60.9016 368.897 57.3551C368.402 57.0725 367.95 57.8363 368.445 58.1189C374.81 61.6513 380.864 65.7636 387.144 69.4516C393.085 72.9277 398.998 76.432 404.953 79.8798C417.131 86.9307 429.465 93.7412 442.265 99.5898C467.654 111.202 494.78 118.473 520.097 130.283C543.704 141.289 565.912 156.07 580.091 178.435C586.601 188.699 591.244 200.292 592.522 212.425C593.857 225.08 591.318 237.738 585.921 249.208C574.619 273.239 553.542 290.388 533.031 306.334C522.146 314.795 511.148 323.186 501.211 332.764C491.599 342.016 483.331 352.47 476.153 363.701C461.513 386.602 451.272 411.891 438.711 435.922C426.447 459.374 411.44 482.855 389.359 498.222C368.959 512.414 342.081 520.034 317.882 511.73C294.064 503.553 278.316 481.882 266.315 460.902C253.578 438.621 242.989 414.176 223.566 396.678C204.383 379.406 179.165 371.244 154.699 364.722C128.846 357.833 101.848 352.188 79.0458 337.464C58.9314 324.477 42.2066 302 42.9873 277.126C43.7679 251.926 64.1231 234.198 85.6698 224.686C111.529 213.262 140.546 212.245 166.844 202.109C188.872 193.614 208.394 178.984 222.908 160.396C235.798 143.901 243.057 124.256 252.113 105.586C259.926 89.4758 268.785 72.9551 282.2 60.7595C296.052 48.1536 313.839 43.3942 332.281 45.9596C344.994 47.7216 357.087 52.2413 368.332 58.3593C369.095 58.7408 369.774 57.5809 369.024 57.157Z" fill="url(#paint22_linear_3_24)"/>
<g opacity="0.4248">
<path opacity="0.4248" d="M376.359 16.2014C354.605 4.12056 327.648 -3.81463 302.947 3.29525C283.789 8.80471 269.329 23.1361 258.419 39.2618C246.11 57.4527 237.451 77.8338 228.254 97.692C222.617 109.87 216.485 121.553 208.274 132.219C199.441 143.692 188.911 153.892 177.149 162.34C165.006 171.084 151.617 177.906 137.436 182.621C121.275 188.002 104.463 190.979 87.8769 194.763C60.6299 200.969 31.7157 210.597 13.88 233.542C6.00794 243.671 1.34689 255.947 1.1264 268.816C0.90607 282.038 5.15422 295.046 11.8197 306.355C26.9763 332.071 53.3277 346.78 80.8221 356.186C110.297 366.269 141.395 371.063 170.248 383.028C184.689 389.017 198.508 396.874 209.953 407.616C221.299 418.259 230.072 431.236 237.87 444.624C252.545 469.86 264.38 497.387 285.544 518.137C295.292 527.706 306.933 535.436 320.1 539.375C333.324 543.314 347.437 543.308 360.869 540.446C424.031 526.941 452.115 463.251 477.56 410.96C491.801 381.71 507.584 353.223 531.613 330.784C554.795 309.138 582.448 292.609 604.045 269.224C623.211 248.485 637.623 221.936 634.216 192.877C630.979 165.275 613.773 140.847 592.681 123.577C568.377 103.677 538.308 92.038 509.131 81.3463C493.446 75.598 477.563 70.2456 462.33 63.3516C447.309 56.5423 432.853 48.5733 418.595 40.3071C411.777 36.3648 405.002 32.3518 398.213 28.3671C390.999 24.1421 383.531 20.4264 376.232 16.3712C375.737 16.0886 375.285 16.8524 375.78 17.135C383.064 21.1761 390.038 25.8254 397.238 30.0362C404.027 34.0209 410.817 38.0198 417.62 41.9762C431.553 50.0445 445.669 57.844 460.322 64.5403C489.388 77.834 520.446 86.1492 549.427 99.6692C576.47 112.285 601.903 129.215 618.163 154.831C625.62 166.593 630.943 179.897 632.406 193.811C633.94 208.334 631.019 222.83 624.817 235.998C611.862 263.522 587.732 283.161 564.252 301.427C551.784 311.119 539.203 320.713 527.824 331.677C516.827 342.259 507.372 354.227 499.162 367.071C482.402 393.296 470.678 422.248 456.295 449.759C442.237 476.633 425.053 503.523 399.749 521.126C376.367 537.384 345.543 546.123 317.808 536.59C290.512 527.213 272.442 502.389 258.686 478.327C244.11 452.837 231.992 424.858 209.768 404.83C187.826 385.071 158.974 375.736 130.986 368.282C101.385 360.391 70.4557 353.914 44.3579 337.069C21.3013 322.189 2.12864 296.404 3.00675 267.882C3.89883 238.991 27.2366 218.646 51.9361 207.732C81.5416 194.652 114.787 193.492 144.902 181.869C170.083 172.157 192.418 155.404 209.024 134.156C223.779 115.271 232.084 92.7975 242.44 71.4399C251.397 52.9818 261.542 34.0706 276.907 20.0923C292.809 5.63306 313.198 0.179619 334.369 3.13975C348.935 5.16954 362.781 10.339 375.653 17.3613C376.445 17.771 377.123 16.6112 376.359 16.2014Z" fill="url(#paint23_linear_3_24)"/>
</g>
<path d="M478.855 335.927C495.505 317.918 516.57 304.984 534.748 288.685C550.593 274.48 565.151 256.43 568.705 234.863C572.117 214.046 564.019 193.573 550.96 177.586C536.415 159.774 516.174 148.216 495.326 139.232C472.54 129.414 448.483 122.736 426.136 111.886C403.873 101.064 383.419 87.0448 361.481 75.6711C344.861 67.0525 324.453 61.787 305.973 67.1265C291.749 71.2338 280.724 81.4768 272.273 93.2742C262.62 106.741 255.825 122.045 248.945 137.023C245.004 145.623 241.147 154.25 235.961 162.2C230.153 171.083 223.129 179.161 215.17 186.178C207.014 193.38 197.853 199.436 188.042 204.121C176.745 209.514 164.6 212.673 152.425 215.379C130.283 220.296 107.206 224.266 88.617 238.218C80.7997 244.09 74.0436 251.559 70.1023 260.597C66.161 269.621 65.3735 279.619 67.3717 289.234C71.6657 309.85 86.8041 326.444 104.669 336.675C145.038 359.805 198.631 355.808 233.32 389.589C250.155 405.985 259.286 428.07 271.032 447.989C281.462 465.689 294.889 483.289 314.507 491.241C334.52 499.363 357.313 495.111 375.734 484.893C395.654 473.854 410.24 455.634 421.685 436.34C424.568 431.474 427.281 426.524 429.88 421.502C432.565 416.34 434.627 410.937 437.156 405.704C437.396 405.194 436.647 404.742 436.392 405.251C433.892 410.442 430.868 415.407 428.211 420.513C425.541 425.648 422.772 430.74 419.804 435.719C413.968 445.521 407.425 454.928 399.68 463.317C384.74 479.501 364.594 491.671 342.266 493.406C331.534 494.246 320.701 492.426 311.04 487.594C301.606 482.875 293.656 475.738 286.921 467.695C272.73 450.746 264.236 430.132 252.689 411.457C246.943 402.169 240.378 393.291 232.243 385.956C224.066 378.578 214.49 372.925 204.448 368.504C183.812 359.406 161.538 355.315 140.013 348.919C118.572 342.551 96.7767 333.44 82.3872 315.572C69.3561 299.386 63.1663 276.82 73.6787 257.711C83.8802 239.167 104.621 229.287 124.19 223.891C147.081 217.574 171.077 215.173 192.425 204.091C210.437 194.75 226 180.729 237.192 163.811C246.745 149.383 252.634 132.722 260.377 117.305C267.215 103.713 275.114 89.9357 286.761 79.8621C298.833 69.4205 314.089 65.4683 329.829 67.441C353.319 70.3718 373.179 84.3767 393.138 96.02C403.647 102.153 414.241 108.172 425.203 113.484C435.769 118.612 446.659 122.779 457.691 126.776C498.735 141.705 548.802 158.949 564.265 204.617C567.677 214.684 568.686 225.459 566.697 235.925C564.665 246.588 559.819 256.489 553.587 265.316C540.275 284.214 521.275 297.6 503.407 311.806C494.403 318.965 485.638 326.435 477.907 334.966C477.328 335.617 478.276 336.564 478.855 335.927Z" fill="url(#paint24_linear_3_24)"/>
<defs>
<linearGradient id="paint0_linear_3_24" x1="525.96" y1="136.763" x2="540.115" y2="136.757" gradientUnits="userSpaceOnUse">
<stop offset="0.0277" stop-color="#FF4D4D"/>
<stop offset="0.7154" stop-color="#F6BE56"/>
<stop offset="1" stop-color="#F2B45A"/>
</linearGradient>
<linearGradient id="paint1_linear_3_24" x1="520.193" y1="136.765" x2="545.881" y2="136.754" gradientUnits="userSpaceOnUse">
<stop offset="0.0277" stop-color="#FFD24D"/>
<stop offset="0.7154" stop-color="#F6BE56"/>
<stop offset="1" stop-color="#F2B45A"/>
</linearGradient>
<linearGradient id="paint2_linear_3_24" x1="361.377" y1="485.968" x2="379.955" y2="485.96" gradientUnits="userSpaceOnUse">
<stop offset="0.0277" stop-color="#FFD24D"/>
<stop offset="0.7154" stop-color="#F6BE56"/>
<stop offset="1" stop-color="#F2B45A"/>
</linearGradient>
<linearGradient id="paint3_linear_3_24" x1="550.35" y1="158.091" x2="584.184" y2="158.076" gradientUnits="userSpaceOnUse">
<stop offset="0.0277" stop-color="#FF4D4D"/>
<stop offset="0.7154" stop-color="#F6BE56"/>
<stop offset="1" stop-color="#F2B45A"/>
</linearGradient>
<linearGradient id="paint4_linear_3_24" x1="74.3492" y1="341.59" x2="90.006" y2="341.583" gradientUnits="userSpaceOnUse">
<stop offset="0.0277" stop-color="#FF4D4D"/>
<stop offset="0.7154" stop-color="#F6BE56"/>
<stop offset="1" stop-color="#F2B45A"/>
</linearGradient>
<linearGradient id="paint5_linear_3_24" x1="481.121" y1="110.408" x2="495.934" y2="109.103" gradientUnits="userSpaceOnUse">
<stop offset="0.0277" stop-color="#FFD24D"/>
<stop offset="0.7154" stop-color="#F6BE56"/>
<stop offset="1" stop-color="#F2B45A"/>
</linearGradient>
<linearGradient id="paint6_linear_3_24" x1="484.646" y1="109.708" x2="507.349" y2="107.708" gradientUnits="userSpaceOnUse">
<stop offset="0.0277" stop-color="#FFD24D"/>
<stop offset="0.7154" stop-color="#F6BE56"/>
<stop offset="1" stop-color="#F2B45A"/>
</linearGradient>
<linearGradient id="paint7_linear_3_24" x1="480.754" y1="121.888" x2="504.052" y2="119.836" gradientUnits="userSpaceOnUse">
<stop offset="0.0277" stop-color="#FFD24D"/>
<stop offset="0.7154" stop-color="#F6BE56"/>
<stop offset="1" stop-color="#F2B45A"/>
</linearGradient>
<linearGradient id="paint8_linear_3_24" x1="96.9423" y1="284.943" x2="110.632" y2="284.937" gradientUnits="userSpaceOnUse">
<stop offset="0.0277" stop-color="#FFD24D"/>
<stop offset="0.1674" stop-color="#EBC34D"/>
<stop offset="0.4544" stop-color="#B69D4D"/>
<stop offset="0.8604" stop-color="#625F4E"/>
<stop offset="1" stop-color="#44494E"/>
</linearGradient>
<linearGradient id="paint9_linear_3_24" x1="100.813" y1="283.897" x2="121.701" y2="283.888" gradientUnits="userSpaceOnUse">
<stop offset="0.0277" stop-color="#FFD24D"/>
<stop offset="0.1674" stop-color="#EBC34D"/>
<stop offset="0.4544" stop-color="#B69D4D"/>
<stop offset="0.8604" stop-color="#625F4E"/>
<stop offset="1" stop-color="#44494E"/>
</linearGradient>
<linearGradient id="paint10_linear_3_24" x1="96.9471" y1="296.052" x2="118.378" y2="296.042" gradientUnits="userSpaceOnUse">
<stop offset="0.0277" stop-color="#FFD24D"/>
<stop offset="0.1674" stop-color="#EBC34D"/>
<stop offset="0.4544" stop-color="#B69D4D"/>
<stop offset="0.8604" stop-color="#625F4E"/>
<stop offset="1" stop-color="#44494E"/>
</linearGradient>
<linearGradient id="paint11_linear_3_24" x1="516.748" y1="367.611" x2="535.393" y2="365.969" gradientUnits="userSpaceOnUse">
<stop offset="0.0277" stop-color="#FFD24D"/>
<stop offset="0.7154" stop-color="#F6BE56"/>
<stop offset="1" stop-color="#F2B45A"/>
</linearGradient>
<linearGradient id="paint12_linear_3_24" x1="521.25" y1="366.717" x2="549.975" y2="364.187" gradientUnits="userSpaceOnUse">
<stop offset="0.0277" stop-color="#FFD24D"/>
<stop offset="0.7154" stop-color="#F6BE56"/>
<stop offset="1" stop-color="#F2B45A"/>
</linearGradient>
<linearGradient id="paint13_linear_3_24" x1="516.28" y1="382.277" x2="545.764" y2="379.68" gradientUnits="userSpaceOnUse">
<stop offset="0.0277" stop-color="#FFD24D"/>
<stop offset="0.7154" stop-color="#F6BE56"/>
<stop offset="1" stop-color="#F2B45A"/>
</linearGradient>
<linearGradient id="paint14_linear_3_24" x1="481.76" y1="41.2308" x2="482.905" y2="62.1997" gradientUnits="userSpaceOnUse">
<stop offset="0.0277" stop-color="#FFD24D"/>
<stop offset="0.7154" stop-color="#F6BE56"/>
<stop offset="1" stop-color="#F2B45A"/>
</linearGradient>
<linearGradient id="paint15_linear_3_24" x1="481.482" y1="46.4055" x2="483.25" y2="78.7791" gradientUnits="userSpaceOnUse">
<stop offset="0.0277" stop-color="#FFD24D"/>
<stop offset="0.7154" stop-color="#F6BE56"/>
<stop offset="1" stop-color="#F2B45A"/>
</linearGradient>
<linearGradient id="paint16_linear_3_24" x1="498.072" y1="38.358" x2="499.888" y2="71.591" gradientUnits="userSpaceOnUse">
<stop offset="0.0277" stop-color="#FFD24D"/>
<stop offset="0.7154" stop-color="#F6BE56"/>
<stop offset="1" stop-color="#F2B45A"/>
</linearGradient>
<linearGradient id="paint17_linear_3_24" x1="88.3626" y1="354.358" x2="115.625" y2="351.957" gradientUnits="userSpaceOnUse">
<stop offset="0.0277" stop-color="#FFD24D"/>
<stop offset="0.1674" stop-color="#EBC34D"/>
<stop offset="0.4544" stop-color="#B69D4D"/>
<stop offset="0.8604" stop-color="#625F4E"/>
<stop offset="1" stop-color="#44494E"/>
</linearGradient>
<linearGradient id="paint18_linear_3_24" x1="95.0637" y1="353.027" x2="137.326" y2="349.304" gradientUnits="userSpaceOnUse">
<stop offset="0.0277" stop-color="#FFD24D"/>
<stop offset="0.1674" stop-color="#EBC34D"/>
<stop offset="0.4544" stop-color="#B69D4D"/>
<stop offset="0.8604" stop-color="#625F4E"/>
<stop offset="1" stop-color="#44494E"/>
</linearGradient>
<linearGradient id="paint19_linear_3_24" x1="87.6659" y1="376.183" x2="131.059" y2="372.361" gradientUnits="userSpaceOnUse">
<stop offset="0.0277" stop-color="#FFD24D"/>
<stop offset="0.1674" stop-color="#EBC34D"/>
<stop offset="0.4544" stop-color="#B69D4D"/>
<stop offset="0.8604" stop-color="#625F4E"/>
<stop offset="1" stop-color="#44494E"/>
</linearGradient>
<linearGradient id="paint20_linear_3_24" x1="135.063" y1="447.217" x2="186.241" y2="447.194" gradientUnits="userSpaceOnUse">
<stop offset="0.0277" stop-color="#FF4D4D"/>
<stop offset="0.7154" stop-color="#FFBE56"/>
<stop offset="1" stop-color="#FFB45A"/>
</linearGradient>
<linearGradient id="paint21_linear_3_24" x1="526.38" y1="258" x2="540.355" y2="271.466" gradientUnits="userSpaceOnUse">
<stop offset="0.0277" stop-color="#FF4D4D"/>
<stop offset="0.7154" stop-color="#F6BE56"/>
<stop offset="1" stop-color="#F2B45A"/>
</linearGradient>
<linearGradient id="paint22_linear_3_24" x1="72.5124" y1="374.903" x2="587.567" y2="187.177" gradientUnits="userSpaceOnUse">
<stop offset="0.0277" stop-color="#FF4D4D"/>
<stop offset="0.0356" stop-color="#F7CC4C"/>
<stop offset="0.0797" stop-color="#CEAE4A"/>
<stop offset="0.1292" stop-color="#FF4D4D"/>
<stop offset="0.1831" stop-color="#887B45"/>
<stop offset="0.2427" stop-color="#6C6744"/>
<stop offset="0.3099" stop-color="#565742"/>
<stop offset="0.3884" stop-color="#454B41"/>
<stop offset="0.4856" stop-color="#3A4241"/>
<stop offset="0.6218" stop-color="#333D40"/>
<stop offset="1" stop-color="#313C40"/>
</linearGradient>
<linearGradient id="paint23_linear_3_24" x1="1.126" y1="271.697" x2="634.757" y2="271.413" gradientUnits="userSpaceOnUse">
<stop stop-color="#5C5A44"/>
<stop offset="0.6103" stop-color="#3F4541"/>
<stop offset="1" stop-color="#313C40"/>
</linearGradient>
<linearGradient id="paint24_linear_3_24" x1="197.214" y1="128.501" x2="467" y2="398.046" gradientUnits="userSpaceOnUse">
<stop stop-color="#313C40"/>
<stop offset="0.251" stop-color="#FF584D"/>
<stop offset="0.397" stop-color="#3C4441"/>
<stop offset="0.5161" stop-color="#4A4E42"/>
<stop offset="0.6208" stop-color="#5E5D43"/>
<stop offset="0.716" stop-color="#786F44"/>
<stop offset="0.8042" stop-color="#FF4D4D"/>
<stop offset="0.8873" stop-color="#BDA249"/>
<stop offset="0.964" stop-color="#E8C14C"/>
<stop offset="1" stop-color="#FF4D4D"/>
</linearGradient>
</defs>
</svg>
