<svg width="392" height="392" viewBox="0 0 392 392" fill="none" xmlns="http://www.w3.org/2000/svg">
<path fill-rule="evenodd" clip-rule="evenodd" d="M327.441 64.56H360.028V31.9727H327.441V64.56ZM327.441 101.492H360.028V68.905H327.441V101.492ZM327.441 138.428H360.028V105.841H327.441V138.428ZM327.441 175.362H360.028V142.774H327.441V175.362ZM327.441 212.294H360.028V179.706H327.441V212.294ZM327.441 249.226H360.028V216.639H327.441V249.226ZM327.441 286.159H360.028V253.571H327.441V286.159ZM327.441 323.091H360.028V290.504H327.441V323.091ZM327.441 360.027H360.028V327.44H327.441V360.027ZM290.504 360.024H323.091V327.436H290.504V360.024ZM253.571 360.024H286.159V327.436H253.571V360.024ZM216.639 360.024H249.227V327.436H216.639V360.024ZM179.706 360.024H212.293V327.436H179.706V360.024ZM142.771 360.024H175.358V327.436H142.771V360.024ZM105.842 360.024H138.426V327.436H105.842V360.024ZM68.905 360.024H101.492V327.436H68.905V360.024ZM31.9729 360.024H64.5637V327.436H31.9729V360.024ZM31.9729 323.091H64.5637V290.504H31.9729V323.091ZM31.9729 286.159H64.5637V253.571H31.9729V286.159ZM31.9729 249.226H64.5637V216.639H31.9729V249.226ZM31.9729 212.294H64.5637V179.706H31.9729V212.294ZM31.9729 175.358H64.5637V142.771H31.9729V175.358ZM31.9729 138.425H64.5637V105.838H31.9729V138.425ZM31.9729 101.492H64.5637V68.905H31.9729V101.492ZM31.9729 64.56H64.5637V31.9727H31.9729V64.56ZM68.905 64.56H101.492V31.9727H68.905V64.56ZM105.842 64.56H138.426V31.9727H105.842V64.56ZM142.774 64.56H175.361V31.9727H142.774V64.56ZM179.706 64.56H212.293V31.9727H179.706V64.56ZM216.639 64.56H249.227V31.9727H216.639V64.56ZM253.575 64.56H286.162V31.9727H253.575V64.56ZM290.504 101.492H323.091V68.905H290.504V101.492ZM290.504 138.425H323.091V105.838H290.504V138.425ZM290.504 175.358H323.091V142.771H290.504V175.358ZM290.504 212.294H323.091V179.706H290.504V212.294ZM290.504 249.226H323.091V216.639H290.504V249.226ZM290.504 286.159H323.091V253.571H290.504V286.159ZM290.504 323.091H323.091V290.504H290.504V323.091ZM253.571 323.091H286.159V290.504H253.571V323.091ZM216.639 323.091H249.227V290.504H216.639V323.091ZM179.706 323.091H212.293V290.504H179.706V323.091ZM142.771 323.091H175.358V290.504H142.771V323.091ZM105.842 323.091H138.426V290.504H105.842V323.091ZM68.905 323.091H101.492V290.504H68.905V323.091ZM68.905 286.159H101.492V253.571H68.905V286.159ZM68.905 249.226H101.492V216.639H68.905V249.226ZM68.905 212.294H101.492V179.706H68.905V212.294ZM68.905 175.362H101.492V142.774H68.905V175.362ZM68.905 138.428H101.492V105.841H68.905V138.428ZM68.905 101.492H101.492V68.905H68.905V101.492ZM105.842 101.492H138.426V68.905H105.842V101.492ZM142.774 101.492H175.361V68.905H142.774V101.492ZM179.706 101.492H212.293V68.905H179.706V101.492ZM216.639 101.492H249.227V68.905H216.639V101.492ZM253.571 101.492H286.159V68.905H253.571V101.492ZM253.571 138.425H286.159V105.838H253.571V138.425ZM253.571 175.358H286.159V142.771H253.571V175.358ZM253.571 212.294H286.159V179.706H253.571V212.294ZM253.571 249.226H286.159V216.639H253.571V249.226ZM253.571 286.159H286.159V253.571H253.571V286.159ZM216.639 286.159H249.227V253.571H216.639V286.159ZM179.706 286.159H212.293V253.571H179.706V286.159ZM142.771 286.159H175.358V253.571H142.771V286.159ZM105.842 286.159H138.426V253.571H105.842V286.159ZM105.842 249.226H138.426V216.639H105.842V249.226ZM105.842 212.294H138.426V179.706H105.842V212.294ZM105.842 175.362H138.426V142.774H105.842V175.362ZM105.842 138.428H138.426V105.841H105.842V138.428ZM142.774 138.428H175.361V105.841H142.774V138.428ZM179.706 138.428H212.293V105.841H179.706V138.428ZM216.639 138.425H249.227V105.838H216.639V138.425ZM216.639 175.358H249.227V142.771H216.639V175.358ZM216.639 212.294H249.227V179.706H216.639V212.294ZM216.639 249.226H249.227V216.639H216.639V249.226ZM179.706 249.226H212.293V216.639H179.706V249.226ZM142.774 249.226H175.361V216.639H142.774V249.226ZM142.774 212.294H175.361V179.706H142.774V212.294ZM142.774 175.362H175.361V142.774H142.774V175.362ZM179.706 212.294H212.293V179.706H179.706V212.294ZM179.706 175.358H212.293V142.771H179.706V175.358ZM290.504 64.56H323.091V31.9727H290.504V64.56ZM392 31.9726V27.6274H364.369V0H360.027V27.6274H327.44V0H323.091V27.6274H290.504V0H286.162V27.6274H253.571V0H249.226V27.6274H216.639V0H212.294V27.6274H179.706V0H175.361V27.6274H142.77V0H138.425V27.6274H105.841V0H101.493V27.6274H68.9052V0H64.5635V27.6274H31.9726V0H27.6274V27.6274H0V31.9726H27.6274V64.56H0V68.9052H27.6274V101.493H0V105.838H27.6274V138.429H0V142.77H27.6274V175.361H0V179.706H27.6274V212.294H0V216.639H27.6274V249.226H0V253.571H27.6274V286.159H0V290.504H27.6274V323.091H0V327.437H27.6274V360.027H0V364.369H27.6274V392H31.9726V364.369H64.5635V392H68.9052V364.369H101.493V392H105.841V364.369H138.425V392H142.77V364.369H175.361V392H179.706V364.369H212.294V392H216.639V364.369H249.226V392H253.571V364.369H286.162V392H290.504V364.369H323.091V392H327.44V364.369H360.027V392H364.369V364.369H392V360.027H364.369V327.437H392V323.091H364.369V290.504H392V286.159H364.369V253.571H392V249.226H364.369V216.639H392V212.294H364.369V179.706H392V175.361H364.369V142.77H392V138.429H364.369V105.838H392V101.493H364.369V68.9052H392V64.56H364.369V31.9726H392Z" fill="url(#paint0_linear_18_191)"/>
<defs>
<linearGradient id="paint0_linear_18_191" x1="196" y1="0" x2="196" y2="392" gradientUnits="userSpaceOnUse">
<stop stop-color="#FFC263"/>
<stop offset="1" stop-color="#FF4D4D"/>
</linearGradient>
</defs>
</svg>
