<svg width="363" height="363" viewBox="0 0 363 363" fill="none" xmlns="http://www.w3.org/2000/svg">
<path fill-rule="evenodd" clip-rule="evenodd" d="M287.246 34.4092L34.4074 287.244C38.1581 292.38 42.1497 297.349 46.4706 302.155L302.157 46.4688C297.351 42.1515 292.378 38.1564 287.246 34.4092ZM74.822 327.659L327.657 74.824C323.913 69.692 319.918 64.7194 315.601 59.9132L59.9112 315.603C64.7209 319.92 69.69 323.912 74.822 327.659ZM109.17 347.256L347.254 109.168C344.608 103.098 341.594 97.0699 338.25 91.2012L91.199 338.253C97.0677 341.592 103.096 344.606 109.17 347.256ZM150.765 359.521L359.519 150.766C358.258 143.392 356.587 136.096 354.426 128.885L128.887 354.424C136.098 356.588 143.391 358.256 150.765 359.521ZM203.566 360.658L360.66 203.564C361.8 194.196 362.25 184.704 362.002 175.251L175.249 362.004C184.702 362.248 194.194 361.802 203.566 360.658ZM309.042 309.044C329.616 288.466 344.201 264.187 352.797 238.315L238.317 352.799C264.186 344.199 288.468 329.618 309.042 309.044ZM252.902 14.8123L14.811 252.9C17.4602 258.97 20.4778 265.002 23.8176 270.867L270.869 23.8155C265 20.4756 258.972 17.4615 252.902 14.8123ZM211.308 2.55125L2.54974 211.306C3.81414 218.68 5.48231 225.972 7.64277 233.183L233.182 7.64075C225.971 5.48382 218.682 3.81211 211.308 2.55125ZM158.504 1.41068L1.40914 158.505C0.268697 167.877 -0.177564 177.368 0.0632753 186.821L186.82 0.0648158C177.37 -0.179565 167.875 0.266696 158.504 1.41068ZM123.752 9.27342L9.27191 123.754C17.8677 97.881 32.4562 73.6023 53.0267 53.0282C73.6008 32.4542 97.883 17.8693 123.752 9.27342Z" fill="url(#paint0_linear_18_291)"/>
<defs>
<linearGradient id="paint0_linear_18_291" x1="181.034" y1="0" x2="181.034" y2="362.069" gradientUnits="userSpaceOnUse">
<stop stop-color="#FF4D4D"/>
<stop offset="1" stop-color="#FFC561"/>
</linearGradient>
</defs>
</svg>
