<svg width="399" height="404" viewBox="0 0 399 404" fill="none" xmlns="http://www.w3.org/2000/svg">
<path fill-rule="evenodd" clip-rule="evenodd" d="M210.045 58.2963L229.015 37.9057L212.648 22.6785L193.678 43.0691L210.045 58.2963ZM228.594 75.5537L247.564 55.1631L231.197 39.9359L212.227 60.3265L228.594 75.5537ZM247.145 92.8128L266.115 72.4222L249.748 57.1951L230.778 77.5856L247.145 92.8128ZM265.694 110.071L284.665 89.68L268.298 74.4528L249.327 94.8434L265.694 110.071ZM284.243 127.328L303.214 106.938L286.847 91.7103L267.876 112.101L284.243 127.328ZM302.792 144.586L321.763 124.195L305.396 108.968L286.425 129.359L302.792 144.586ZM321.342 161.843L340.312 141.453L323.946 126.226L304.975 146.616L321.342 161.843ZM339.891 179.101L358.862 158.71L342.495 143.483L323.524 163.874L339.891 179.101ZM358.442 196.36L377.413 175.97L361.046 160.743L342.075 181.133L358.442 196.36ZM336.938 219.47L355.908 199.08L339.541 183.853L320.571 204.243L336.938 219.47ZM315.437 242.58L334.408 222.189L318.041 206.962L299.071 227.353L315.437 242.58ZM293.937 265.689L312.908 245.298L296.541 230.071L277.57 250.462L293.937 265.689ZM272.437 288.799L291.407 268.408L275.041 253.181L256.07 273.572L272.437 288.799ZM250.935 311.91L269.905 291.52L253.538 276.292L234.568 296.683L250.935 311.91ZM229.437 335.017L248.405 314.629L232.038 299.402L213.07 319.79L229.437 335.017ZM207.934 358.129L226.905 337.739L210.538 322.512L191.567 342.902L207.934 358.129ZM186.434 381.239L205.407 360.846L189.04 345.619L170.067 366.012L186.434 381.239ZM167.885 363.981L186.857 343.588L170.491 328.361L151.518 348.754L167.885 363.981ZM149.335 346.724L168.308 326.331L151.941 311.104L132.968 331.496L149.335 346.724ZM130.786 329.466L149.759 309.073L133.392 293.846L114.419 314.239L130.786 329.466ZM112.237 312.208L131.21 291.816L114.843 276.588L95.87 296.981L112.237 312.208ZM93.6859 294.949L112.659 274.556L96.2917 259.329L77.319 279.722L93.6859 294.949ZM75.1366 277.692L94.1094 257.299L77.7425 242.072L58.7698 262.464L75.1366 277.692ZM56.5873 260.434L75.56 240.041L59.1931 224.814L40.2204 245.207L56.5873 260.434ZM38.0382 243.176L57.0109 222.784L40.6441 207.556L21.6713 227.949L38.0382 243.176ZM59.5384 220.067L78.5091 199.677L62.1422 184.449L43.1715 204.84L59.5384 220.067ZM81.041 196.955L100.01 176.567L83.6428 161.34L64.6741 181.728L81.041 196.955ZM102.541 173.846L121.512 153.455L105.145 138.228L86.1742 158.619L102.541 173.846ZM124.041 150.737L143.012 130.346L126.645 115.119L107.674 135.509L124.041 150.737ZM145.542 127.627L164.512 107.236L148.146 92.0092L129.175 112.4L145.542 127.627ZM167.044 104.515L186.015 84.1247L169.648 68.8975L150.677 89.2881L167.044 104.515ZM207.091 98.6656L226.062 78.275L209.695 63.0478L190.724 83.4384L207.091 98.6656ZM225.64 115.923L244.611 95.5328L228.244 80.3056L209.273 100.696L225.64 115.923ZM244.19 133.181L263.16 112.79L246.793 97.5631L227.823 117.954L244.19 133.181ZM262.741 150.44L281.711 130.05L265.344 114.822L246.374 135.213L262.741 150.44ZM281.29 167.698L300.26 147.307L283.894 132.08L264.923 152.47L281.29 167.698ZM299.839 184.955L318.81 164.565L302.443 149.338L283.472 169.728L299.839 184.955ZM318.388 202.213L337.359 181.822L320.992 166.595L302.022 186.986L318.388 202.213ZM296.888 225.322L315.859 204.932L299.492 189.704L280.521 210.095L296.888 225.322ZM275.388 248.431L294.359 228.041L277.992 212.814L259.021 233.204L275.388 248.431ZM253.888 271.542L272.858 251.151L256.491 235.924L237.521 256.314L253.888 271.542ZM232.386 294.653L251.356 274.262L234.989 259.035L216.019 279.425L232.386 294.653ZM210.887 317.76L229.856 297.372L213.489 282.144L194.521 302.533L210.887 317.76ZM189.385 340.872L208.355 320.481L191.989 305.254L173.018 325.645L189.385 340.872ZM170.836 323.614L189.806 303.224L173.439 287.997L154.469 308.387L170.836 323.614ZM152.286 306.357L171.257 285.966L154.89 270.739L135.919 291.13L152.286 306.357ZM133.737 289.099L152.708 268.709L136.341 253.481L117.37 273.872L133.737 289.099ZM115.188 271.842L134.159 251.451L117.792 236.224L98.821 256.614L115.188 271.842ZM96.6384 254.584L115.609 234.193L99.2422 218.966L80.2715 239.357L96.6384 254.584ZM78.0874 237.325L97.0581 216.934L80.6912 201.707L61.7205 222.097L78.0874 237.325ZM99.59 214.213L118.559 193.824L102.192 178.597L83.2231 198.985L99.59 214.213ZM121.09 191.103L140.061 170.713L123.694 155.486L104.723 175.876L121.09 191.103ZM142.59 167.994L161.561 147.604L145.194 132.376L126.223 152.767L142.59 167.994ZM164.091 144.884L183.061 124.494L166.695 109.266L147.724 129.657L164.091 144.884ZM185.591 121.775L204.562 101.384L188.195 86.1571L169.224 106.548L185.591 121.775ZM204.14 139.032L223.111 118.642L206.744 103.415L187.773 123.805L204.14 139.032ZM222.69 156.29L241.66 135.9L225.293 120.672L206.323 141.063L222.69 156.29ZM241.241 173.549L260.211 153.159L243.844 137.932L224.874 158.322L241.241 173.549ZM259.79 190.807L278.76 170.416L262.394 155.189L243.423 175.58L259.79 190.807ZM278.339 208.065L297.31 187.674L280.943 172.447L261.972 192.837L278.339 208.065ZM256.839 231.174L275.81 210.783L259.443 195.556L240.472 215.947L256.839 231.174ZM235.338 254.284L254.309 233.893L237.942 218.666L218.971 239.057L235.338 254.284ZM213.836 277.395L232.807 257.005L216.44 241.777L197.469 262.168L213.836 277.395ZM192.338 300.502L211.307 280.114L194.94 264.887L175.971 285.275L192.338 300.502ZM173.789 283.245L192.757 262.856L176.391 247.629L157.422 268.017L173.789 283.245ZM155.24 265.987L174.208 245.599L157.841 230.372L138.873 250.76L155.24 265.987ZM136.69 248.73L155.659 228.341L139.292 213.114L120.323 233.502L136.69 248.73ZM118.141 231.472L137.11 211.083L120.743 195.856L101.774 216.245L118.141 231.472ZM139.641 208.363L158.612 187.972L142.245 172.745L123.274 193.135L139.641 208.363ZM161.141 185.253L180.112 164.863L163.745 149.636L144.774 170.026L161.141 185.253ZM182.64 162.142L201.611 141.751L185.244 126.524L166.273 146.915L182.64 162.142ZM201.189 179.399L220.16 159.009L203.793 143.782L184.823 164.172L201.189 179.399ZM219.74 196.659L238.711 176.268L222.344 161.041L203.373 181.432L219.74 196.659ZM238.29 213.916L257.26 193.526L240.893 178.299L221.923 198.689L238.29 213.916ZM216.789 237.026L235.76 216.635L219.393 201.408L200.422 221.799L216.789 237.026ZM195.289 260.135L214.26 239.745L197.893 224.518L178.922 244.908L195.289 260.135ZM176.74 242.878L195.71 222.487L179.344 207.26L160.373 227.651L176.74 242.878ZM158.19 225.62L177.161 205.23L160.794 190.002L141.824 210.393L158.19 225.62ZM198.24 219.769L217.21 199.378L200.844 184.151L181.873 204.541L198.24 219.769ZM179.689 202.509L198.659 182.119L182.293 166.892L163.322 187.282L179.689 202.509ZM188.542 81.4082L207.513 61.0176L191.146 45.7904L172.175 66.181L188.542 81.4082ZM231.261 2.67262L229.078 0.64222L212.993 17.9315L199.117 5.02193L196.59 7.73862L210.466 20.6482L191.495 41.0388L177.619 28.1292L175.088 30.8503L188.963 43.7599L169.993 64.1504L156.117 51.2409L153.589 53.9576L167.465 66.8671L148.492 87.2599L134.617 74.3504L132.087 77.0693L145.963 89.9788L126.992 110.369L113.116 97.4598L110.587 100.179L124.462 113.088L105.492 133.479L91.616 120.569L89.0864 123.288L102.962 136.198L83.9894 156.591L70.1137 143.681L67.5841 146.4L81.4599 159.309L62.4912 179.698L48.6154 166.788L46.0838 169.509L59.9596 182.419L40.9889 202.81L27.1131 189.9L24.5856 192.617L38.4614 205.526L19.4886 225.919L5.61285 213.009L3.08328 215.728L16.9591 228.638L0.875774 245.925L3.05814 247.955L19.1414 230.668L35.5083 245.895L19.425 263.183L21.6074 265.213L37.6907 247.926L54.0576 263.153L37.9743 280.44L40.1567 282.471L56.2399 265.183L72.6086 280.412L56.5253 297.699L58.7059 299.728L74.7892 282.441L91.1578 297.67L75.0746 314.957L77.2569 316.987L93.3402 299.7L109.707 314.928L93.6238 332.215L95.8062 334.245L111.889 316.958L128.256 332.185L112.173 349.472L114.355 351.503L130.439 334.215L146.806 349.443L130.722 366.73L132.905 368.76L148.988 351.473L165.355 366.7L149.272 383.987L151.454 386.018L167.537 368.731L183.906 383.96L167.823 401.247L170.003 403.275L186.086 385.988L199.964 398.899L202.494 396.181L188.616 383.269L207.589 362.877L221.466 375.788L223.994 373.071L210.116 360.16L229.087 339.769L242.965 352.681L245.496 349.959L231.619 337.048L250.587 316.66L264.465 329.571L266.994 326.852L253.117 313.941L272.09 293.548L285.967 306.459L288.497 303.74L274.619 290.829L293.59 270.439L307.467 283.35L309.997 280.631L296.119 267.72L315.09 247.329L328.968 260.24L331.497 257.522L317.62 244.61L336.592 224.218L350.47 237.129L352.998 234.412L339.12 221.501L358.091 201.11L371.968 214.021L374.5 211.3L360.622 198.389L379.593 177.999L393.471 190.91L395.998 188.193L382.121 175.282L398.206 157.993L396.025 155.964L379.94 173.253L363.571 158.024L379.657 140.735L377.474 138.705L361.389 155.994L345.022 140.767L361.107 123.477L358.925 121.447L342.84 138.736L326.473 123.509L342.558 106.22L340.376 104.189L324.29 121.479L307.924 106.251L324.009 88.9622L321.827 86.9318L305.741 104.221L289.374 88.9939L305.46 71.7047L303.277 69.6742L287.192 86.9635L270.823 71.7347L286.909 54.4454L284.728 52.4167L268.643 69.7059L252.274 54.4771L268.359 37.1878L266.177 35.1574L250.092 52.4467L233.725 37.2195L249.81 19.9302L247.628 17.8998L231.542 35.1891L215.176 19.9619L231.261 2.67262Z" fill="url(#paint0_linear_18_54)"/>
<defs>
<linearGradient id="paint0_linear_18_54" x1="101.101" y1="110.374" x2="297.982" y2="293.545" gradientUnits="userSpaceOnUse">
<stop stop-color="#FFC263"/>
<stop offset="1" stop-color="#FF4D4D"/>
</linearGradient>
</defs>
</svg>
