<svg width="68" height="68" viewBox="0 0 68 68" fill="none" xmlns="http://www.w3.org/2000/svg">
<path d="M19.4497 19.5002C23.1713 15.7657 28.3142 13.4585 34 13.4585C45.3448 13.4585 54.5416 22.6553 54.5416 34.0002C54.5416 45.345 45.3448 54.5418 34 54.5418C22.6551 54.5418 13.4583 45.345 13.4583 34.0002C13.4583 32.8266 12.5069 31.8752 11.3333 31.8752C10.1597 31.8752 9.20831 32.8266 9.20831 34.0002C9.20831 47.6922 20.3079 58.7918 34 58.7918C47.692 58.7918 58.7916 47.6922 58.7916 34.0002C58.7916 20.3081 47.692 9.2085 34 9.2085C27.1391 9.2085 20.9258 11.9983 16.4393 16.5001C16.3672 16.5725 16.3014 16.6487 16.2419 16.7282L12.6788 13.1651C12.2901 12.7764 11.7117 12.6476 11.1948 12.8348C10.6779 13.0219 10.316 13.4911 10.2662 14.0386L9.26448 25.0576C9.22642 25.4764 9.3763 25.8903 9.67359 26.1876C9.97089 26.4849 10.3849 26.6348 10.8036 26.5968L21.8227 25.595C22.3701 25.5453 22.8393 25.1833 23.0265 24.6664C23.2136 24.1496 23.0848 23.5711 22.6961 23.1824L19.2165 19.7028C19.2979 19.6418 19.3758 19.5743 19.4497 19.5002Z" fill="#EB5757"/>
<path d="M36.125 19.8335C36.125 18.6599 35.1736 17.7085 34 17.7085C32.8264 17.7085 31.875 18.6599 31.875 19.8335V34.0002C31.875 34.7328 32.2524 35.4138 32.8737 35.8022L41.3737 41.1147C42.3689 41.7367 43.68 41.4341 44.302 40.4389C44.924 39.4437 44.6214 38.1327 43.6262 37.5107L36.125 32.8224V19.8335Z" fill="#EB5757"/>
</svg>
