<svg width="68" height="68" viewBox="0 0 68 68" fill="none" xmlns="http://www.w3.org/2000/svg">
<path fill-rule="evenodd" clip-rule="evenodd" d="M20.5417 28.3334C20.5417 20.9006 26.5672 14.8751 34 14.8751C41.4329 14.8751 47.4584 20.9006 47.4584 28.3334C47.4584 35.7662 41.4329 41.7918 34 41.7918C26.5672 41.7918 20.5417 35.7662 20.5417 28.3334ZM34 19.1251C28.9144 19.1251 24.7917 23.2478 24.7917 28.3334C24.7917 33.419 28.9144 37.5417 34 37.5417C39.0857 37.5417 43.2084 33.419 43.2084 28.3334C43.2084 23.2478 39.0857 19.1251 34 19.1251Z" fill="#EB5757"/>
<path fill-rule="evenodd" clip-rule="evenodd" d="M9.98573 25.0945C10.9897 12.9151 21.1674 3.54175 33.3881 3.54175H34.6119C46.8327 3.54175 57.0104 12.9151 58.0143 25.0945C58.5536 31.6371 56.5327 38.1336 52.3771 43.2157L38.7968 59.8241C36.3176 62.8561 31.6824 62.8561 29.2033 59.8241L15.6229 43.2157C11.4674 38.1336 9.44643 31.6371 9.98573 25.0945ZM33.3881 7.79175C23.3793 7.79175 15.0436 15.4686 14.2214 25.4436C13.7725 30.8889 15.4545 36.2957 18.9131 40.5254L32.4934 57.1338C33.2721 58.0862 34.728 58.0862 35.5067 57.1338L49.087 40.5254C52.5456 36.2957 54.2275 30.8889 53.7787 25.4436C52.9565 15.4686 44.6208 7.79175 34.6119 7.79175H33.3881Z" fill="#EB5757"/>
</svg>
