<svg width="79" height="52" viewBox="0 0 79 52" fill="none" xmlns="http://www.w3.org/2000/svg">
<rect x="0.5" y="0.5" width="78" height="51" rx="7.5" stroke="white"/>
<path d="M15.114 23H14.134V13.2H15.114V23ZM22.2599 23L18.8439 16.168L18.2559 14.768H18.1999L18.3679 17.386V23H17.3879V13.2H18.3679L21.7699 20.046L22.3579 21.446H22.4139L22.2599 18.828V13.2H23.2399V23H22.2599ZM26.307 23L24.921 22.622L25.159 21.768L26.307 22.104H28.855C29.0977 22.104 29.289 22.034 29.429 21.894C29.5783 21.7447 29.653 21.5393 29.653 21.278V20.508C29.653 20.2467 29.6297 20.0647 29.583 19.962C29.5363 19.8593 29.4057 19.7333 29.191 19.584L25.845 17.246C25.3037 16.8633 25.033 16.364 25.033 15.748V14.95C25.033 14.418 25.187 13.9933 25.495 13.676C25.8123 13.3587 26.2417 13.2 26.783 13.2H28.995L30.381 13.592L30.143 14.446L28.995 14.11H26.811C26.5683 14.11 26.3723 14.18 26.223 14.32C26.083 14.46 26.013 14.6653 26.013 14.936V15.636C26.013 15.8787 26.041 16.056 26.097 16.168C26.153 16.28 26.279 16.406 26.475 16.546L29.863 18.912C30.3763 19.2667 30.633 19.7567 30.633 20.382V21.25C30.633 21.7913 30.479 22.2207 30.171 22.538C29.863 22.846 29.4337 23 28.883 23H26.307ZM32.386 13.2H37.272V14.11H33.366V17.414H36.572V18.324H33.366V22.104H37.552V23H32.386V13.2ZM39.1945 13.2H43.1565C43.6979 13.2 44.1132 13.3493 44.4025 13.648C44.6919 13.9373 44.8365 14.348 44.8365 14.88V17.19C44.8365 17.722 44.6919 18.1373 44.4025 18.436C44.1132 18.7253 43.6979 18.87 43.1565 18.87H42.4145L45.2845 23H44.1085L41.3085 18.87H40.1745V23H39.1945V13.2ZM40.1745 14.11V17.974H43.1285C43.6139 17.974 43.8565 17.722 43.8565 17.218V14.866C43.8565 14.362 43.6139 14.11 43.1285 14.11H40.1745ZM45.9561 13.2H51.5561V14.11H49.2461V23H48.2661V14.11H45.9561V13.2Z" fill="white"/>
<path d="M45.114 41H44.134V31.2H45.114V41ZM46.5479 31.2H52.1479V32.11H49.8379V41H48.8579V32.11H46.5479V31.2Z" fill="white"/>
<path d="M34.188 39.254V37.976L38.148 35.6L34.188 33.278V32.018L39.606 35.258V35.996L34.188 39.254Z" fill="white"/>
<line x1="56" y1="40.5" x2="64" y2="40.5" stroke="white"/>
</svg>
