<svg width="78" height="80" viewBox="0 0 78 80" fill="none" xmlns="http://www.w3.org/2000/svg">
<g filter="url(#filter0_iiiii_12_146)">
<path d="M18.2484 25.5868L24.9436 24.272C27.1633 23.8362 29.0956 22.4949 30.268 20.5764L35.5552 11.9239C37.1228 9.35869 40.8772 9.35868 42.4448 11.9239L47.732 20.5764C48.9044 22.4949 50.8367 23.8362 53.0564 24.272L59.7516 25.5868C62.9189 26.2088 64.0973 30.0875 61.8032 32.34L56.1837 37.8577C54.2567 39.7497 53.4196 42.476 53.9565 45.1115L54.9946 50.2082C55.6573 53.4614 52.2594 56.0492 49.2594 54.5763L42.5748 51.2946C40.3222 50.1887 37.6778 50.1887 35.4252 51.2946L28.7406 54.5763C25.7406 56.0492 22.3427 53.4614 23.0054 50.2082L24.0435 45.1115C24.5804 42.476 23.7433 39.7497 21.8163 37.8577L16.1968 32.34C13.9027 30.0875 15.0811 26.2088 18.2484 25.5868Z" fill="url(#paint0_linear_12_146)"/>
</g>
<line x1="35.6569" y1="39.2426" x2="45.5564" y2="29.3432" stroke="white" stroke-width="2" stroke-linecap="round"/>
<line x1="35.6568" y1="39.2427" x2="31.4142" y2="35" stroke="white" stroke-width="2" stroke-linecap="round"/>
<g filter="url(#filter1_iiiii_12_146)">
<path d="M18.2484 25.5868L24.9436 24.272C27.1633 23.8362 29.0956 22.4949 30.268 20.5764L35.5552 11.9239C37.1228 9.35869 40.8772 9.35868 42.4448 11.9239L47.732 20.5764C48.9044 22.4949 50.8367 23.8362 53.0564 24.272L59.7516 25.5868C62.9189 26.2088 64.0973 30.0875 61.8032 32.34L56.1837 37.8577C54.2567 39.7497 53.4196 42.476 53.9565 45.1115L54.9946 50.2082C55.6573 53.4614 52.2594 56.0492 49.2594 54.5763L42.5748 51.2946C40.3222 50.1887 37.6778 50.1887 35.4252 51.2946L28.7406 54.5763C25.7406 56.0492 22.3427 53.4614 23.0054 50.2082L24.0435 45.1115C24.5804 42.476 23.7433 39.7497 21.8163 37.8577L16.1968 32.34C13.9027 30.0875 15.0811 26.2088 18.2484 25.5868Z" fill="url(#paint1_linear_12_146)"/>
</g>
<g opacity="0.5" filter="url(#filter2_f_12_146)">
<g filter="url(#filter3_iiiii_12_146)">
<path d="M18.2484 35.5868L24.9436 34.272C27.1633 33.8362 29.0956 32.4949 30.268 30.5764L35.5552 21.9239C37.1228 19.3587 40.8772 19.3587 42.4448 21.9239L47.732 30.5764C48.9044 32.4949 50.8367 33.8362 53.0564 34.272L59.7516 35.5868C62.9189 36.2088 64.0973 40.0875 61.8032 42.34L56.1837 47.8577C54.2567 49.7497 53.4196 52.476 53.9565 55.1115L54.9946 60.2082C55.6573 63.4614 52.2594 66.0492 49.2594 64.5763L42.5748 61.2946C40.3222 60.1887 37.6778 60.1887 35.4252 61.2946L28.7406 64.5763C25.7406 66.0492 22.3427 63.4614 23.0054 60.2082L24.0435 55.1115C24.5804 52.476 23.7433 49.7497 21.8163 47.8577L16.1968 42.34C13.9027 40.0875 15.0811 36.2088 18.2484 35.5868Z" fill="url(#paint2_linear_12_146)"/>
</g>
</g>
<line x1="35.6569" y1="39.2426" x2="45.5564" y2="29.3432" stroke="white" stroke-width="2" stroke-linecap="round"/>
<line x1="35.6568" y1="39.2427" x2="31.4142" y2="35" stroke="white" stroke-width="2" stroke-linecap="round"/>
<defs>
<filter id="filter0_iiiii_12_146" x="11" y="6" width="54" height="51" filterUnits="userSpaceOnUse" color-interpolation-filters="sRGB">
<feFlood flood-opacity="0" result="BackgroundImageFix"/>
<feBlend mode="normal" in="SourceGraphic" in2="BackgroundImageFix" result="shape"/>
<feColorMatrix in="SourceAlpha" type="matrix" values="0 0 0 0 0 0 0 0 0 0 0 0 0 0 0 0 0 0 127 0" result="hardAlpha"/>
<feOffset dx="2" dy="2"/>
<feGaussianBlur stdDeviation="3"/>
<feComposite in2="hardAlpha" operator="arithmetic" k2="-1" k3="1"/>
<feColorMatrix type="matrix" values="0 0 0 0 1 0 0 0 0 0.7625 0 0 0 0 0.7625 0 0 0 0.4 0"/>
<feBlend mode="normal" in2="shape" result="effect1_innerShadow_12_146"/>
<feColorMatrix in="SourceAlpha" type="matrix" values="0 0 0 0 0 0 0 0 0 0 0 0 0 0 0 0 0 0 127 0" result="hardAlpha"/>
<feOffset dx="-4" dy="-4"/>
<feGaussianBlur stdDeviation="3"/>
<feComposite in2="hardAlpha" operator="arithmetic" k2="-1" k3="1"/>
<feColorMatrix type="matrix" values="0 0 0 0 0.583333 0 0 0 0 0 0 0 0 0 0 0 0 0 0.2 0"/>
<feBlend mode="normal" in2="effect1_innerShadow_12_146" result="effect2_innerShadow_12_146"/>
<feColorMatrix in="SourceAlpha" type="matrix" values="0 0 0 0 0 0 0 0 0 0 0 0 0 0 0 0 0 0 127 0" result="hardAlpha"/>
<feOffset dx="1" dy="1"/>
<feGaussianBlur stdDeviation="1"/>
<feComposite in2="hardAlpha" operator="arithmetic" k2="-1" k3="1"/>
<feColorMatrix type="matrix" values="0 0 0 0 1 0 0 0 0 0.795833 0 0 0 0 0.795833 0 0 0 0.4 0"/>
<feBlend mode="normal" in2="effect2_innerShadow_12_146" result="effect3_innerShadow_12_146"/>
<feColorMatrix in="SourceAlpha" type="matrix" values="0 0 0 0 0 0 0 0 0 0 0 0 0 0 0 0 0 0 127 0" result="hardAlpha"/>
<feOffset dx="-2" dy="-2"/>
<feGaussianBlur stdDeviation="2"/>
<feComposite in2="hardAlpha" operator="arithmetic" k2="-1" k3="1"/>
<feColorMatrix type="matrix" values="0 0 0 0 0.304167 0 0 0 0 0 0 0 0 0 0 0 0 0 0.2 0"/>
<feBlend mode="normal" in2="effect3_innerShadow_12_146" result="effect4_innerShadow_12_146"/>
<feColorMatrix in="SourceAlpha" type="matrix" values="0 0 0 0 0 0 0 0 0 0 0 0 0 0 0 0 0 0 127 0" result="hardAlpha"/>
<feOffset dx="-1" dy="-1"/>
<feGaussianBlur stdDeviation="0.5"/>
<feComposite in2="hardAlpha" operator="arithmetic" k2="-1" k3="1"/>
<feColorMatrix type="matrix" values="0 0 0 0 1 0 0 0 0 0.25 0 0 0 0 0.25 0 0 0 0.2 0"/>
<feBlend mode="normal" in2="effect4_innerShadow_12_146" result="effect5_innerShadow_12_146"/>
</filter>
<filter id="filter1_iiiii_12_146" x="11" y="6" width="54" height="51" filterUnits="userSpaceOnUse" color-interpolation-filters="sRGB">
<feFlood flood-opacity="0" result="BackgroundImageFix"/>
<feBlend mode="normal" in="SourceGraphic" in2="BackgroundImageFix" result="shape"/>
<feColorMatrix in="SourceAlpha" type="matrix" values="0 0 0 0 0 0 0 0 0 0 0 0 0 0 0 0 0 0 127 0" result="hardAlpha"/>
<feOffset dx="2" dy="2"/>
<feGaussianBlur stdDeviation="3"/>
<feComposite in2="hardAlpha" operator="arithmetic" k2="-1" k3="1"/>
<feColorMatrix type="matrix" values="0 0 0 0 1 0 0 0 0 0.7625 0 0 0 0 0.7625 0 0 0 0.4 0"/>
<feBlend mode="normal" in2="shape" result="effect1_innerShadow_12_146"/>
<feColorMatrix in="SourceAlpha" type="matrix" values="0 0 0 0 0 0 0 0 0 0 0 0 0 0 0 0 0 0 127 0" result="hardAlpha"/>
<feOffset dx="-4" dy="-4"/>
<feGaussianBlur stdDeviation="3"/>
<feComposite in2="hardAlpha" operator="arithmetic" k2="-1" k3="1"/>
<feColorMatrix type="matrix" values="0 0 0 0 0.583333 0 0 0 0 0 0 0 0 0 0 0 0 0 0.2 0"/>
<feBlend mode="normal" in2="effect1_innerShadow_12_146" result="effect2_innerShadow_12_146"/>
<feColorMatrix in="SourceAlpha" type="matrix" values="0 0 0 0 0 0 0 0 0 0 0 0 0 0 0 0 0 0 127 0" result="hardAlpha"/>
<feOffset dx="1" dy="1"/>
<feGaussianBlur stdDeviation="1"/>
<feComposite in2="hardAlpha" operator="arithmetic" k2="-1" k3="1"/>
<feColorMatrix type="matrix" values="0 0 0 0 1 0 0 0 0 0.795833 0 0 0 0 0.795833 0 0 0 0.4 0"/>
<feBlend mode="normal" in2="effect2_innerShadow_12_146" result="effect3_innerShadow_12_146"/>
<feColorMatrix in="SourceAlpha" type="matrix" values="0 0 0 0 0 0 0 0 0 0 0 0 0 0 0 0 0 0 127 0" result="hardAlpha"/>
<feOffset dx="-2" dy="-2"/>
<feGaussianBlur stdDeviation="2"/>
<feComposite in2="hardAlpha" operator="arithmetic" k2="-1" k3="1"/>
<feColorMatrix type="matrix" values="0 0 0 0 0.304167 0 0 0 0 0 0 0 0 0 0 0 0 0 0.2 0"/>
<feBlend mode="normal" in2="effect3_innerShadow_12_146" result="effect4_innerShadow_12_146"/>
<feColorMatrix in="SourceAlpha" type="matrix" values="0 0 0 0 0 0 0 0 0 0 0 0 0 0 0 0 0 0 127 0" result="hardAlpha"/>
<feOffset dx="-1" dy="-1"/>
<feGaussianBlur stdDeviation="0.5"/>
<feComposite in2="hardAlpha" operator="arithmetic" k2="-1" k3="1"/>
<feColorMatrix type="matrix" values="0 0 0 0 1 0 0 0 0 0.25 0 0 0 0 0.25 0 0 0 0.2 0"/>
<feBlend mode="normal" in2="effect4_innerShadow_12_146" result="effect5_innerShadow_12_146"/>
</filter>
<filter id="filter2_f_12_146" x="-8" y="-5" width="94" height="94" filterUnits="userSpaceOnUse" color-interpolation-filters="sRGB">
<feFlood flood-opacity="0" result="BackgroundImageFix"/>
<feBlend mode="normal" in="SourceGraphic" in2="BackgroundImageFix" result="shape"/>
<feGaussianBlur stdDeviation="7.5" result="effect1_foregroundBlur_12_146"/>
</filter>
<filter id="filter3_iiiii_12_146" x="11" y="16" width="54" height="51" filterUnits="userSpaceOnUse" color-interpolation-filters="sRGB">
<feFlood flood-opacity="0" result="BackgroundImageFix"/>
<feBlend mode="normal" in="SourceGraphic" in2="BackgroundImageFix" result="shape"/>
<feColorMatrix in="SourceAlpha" type="matrix" values="0 0 0 0 0 0 0 0 0 0 0 0 0 0 0 0 0 0 127 0" result="hardAlpha"/>
<feOffset dx="2" dy="2"/>
<feGaussianBlur stdDeviation="3"/>
<feComposite in2="hardAlpha" operator="arithmetic" k2="-1" k3="1"/>
<feColorMatrix type="matrix" values="0 0 0 0 1 0 0 0 0 0.7625 0 0 0 0 0.7625 0 0 0 0.4 0"/>
<feBlend mode="normal" in2="shape" result="effect1_innerShadow_12_146"/>
<feColorMatrix in="SourceAlpha" type="matrix" values="0 0 0 0 0 0 0 0 0 0 0 0 0 0 0 0 0 0 127 0" result="hardAlpha"/>
<feOffset dx="-4" dy="-4"/>
<feGaussianBlur stdDeviation="3"/>
<feComposite in2="hardAlpha" operator="arithmetic" k2="-1" k3="1"/>
<feColorMatrix type="matrix" values="0 0 0 0 0.583333 0 0 0 0 0 0 0 0 0 0 0 0 0 0.2 0"/>
<feBlend mode="normal" in2="effect1_innerShadow_12_146" result="effect2_innerShadow_12_146"/>
<feColorMatrix in="SourceAlpha" type="matrix" values="0 0 0 0 0 0 0 0 0 0 0 0 0 0 0 0 0 0 127 0" result="hardAlpha"/>
<feOffset dx="1" dy="1"/>
<feGaussianBlur stdDeviation="1"/>
<feComposite in2="hardAlpha" operator="arithmetic" k2="-1" k3="1"/>
<feColorMatrix type="matrix" values="0 0 0 0 1 0 0 0 0 0.795833 0 0 0 0 0.795833 0 0 0 0.4 0"/>
<feBlend mode="normal" in2="effect2_innerShadow_12_146" result="effect3_innerShadow_12_146"/>
<feColorMatrix in="SourceAlpha" type="matrix" values="0 0 0 0 0 0 0 0 0 0 0 0 0 0 0 0 0 0 127 0" result="hardAlpha"/>
<feOffset dx="-2" dy="-2"/>
<feGaussianBlur stdDeviation="2"/>
<feComposite in2="hardAlpha" operator="arithmetic" k2="-1" k3="1"/>
<feColorMatrix type="matrix" values="0 0 0 0 0.304167 0 0 0 0 0 0 0 0 0 0 0 0 0 0.2 0"/>
<feBlend mode="normal" in2="effect3_innerShadow_12_146" result="effect4_innerShadow_12_146"/>
<feColorMatrix in="SourceAlpha" type="matrix" values="0 0 0 0 0 0 0 0 0 0 0 0 0 0 0 0 0 0 127 0" result="hardAlpha"/>
<feOffset dx="-1" dy="-1"/>
<feGaussianBlur stdDeviation="0.5"/>
<feComposite in2="hardAlpha" operator="arithmetic" k2="-1" k3="1"/>
<feColorMatrix type="matrix" values="0 0 0 0 1 0 0 0 0 0.25 0 0 0 0 0.25 0 0 0 0.2 0"/>
<feBlend mode="normal" in2="effect4_innerShadow_12_146" result="effect5_innerShadow_12_146"/>
</filter>
<linearGradient id="paint0_linear_12_146" x1="39" y1="10" x2="39" y2="55" gradientUnits="userSpaceOnUse">
<stop stop-color="#FF5C5C"/>
<stop offset="1" stop-color="#F10F0F"/>
</linearGradient>
<linearGradient id="paint1_linear_12_146" x1="39" y1="10" x2="39" y2="55" gradientUnits="userSpaceOnUse">
<stop stop-color="#FF5C5C"/>
<stop offset="1" stop-color="#F10F0F"/>
</linearGradient>
<linearGradient id="paint2_linear_12_146" x1="39" y1="20" x2="39" y2="65" gradientUnits="userSpaceOnUse">
<stop stop-color="#FF5C5C"/>
<stop offset="1" stop-color="#F10F0F"/>
</linearGradient>
</defs>
</svg>
