<svg width="139" height="12" viewBox="0 0 139 12" fill="none" xmlns="http://www.w3.org/2000/svg">
<path d="M127.258 0L115.429 9.12299L103.593 0L91.7649 9.12299L79.9363 0L69.5036 8.04674L59.0637 0L47.2351 9.12299L35.3993 0L23.5708 9.12299L11.7422 0L0 9.05607L1.30949 10.071L11.7422 2.02423L23.5708 11.1472L35.3993 2.02423L47.2351 11.1472L59.0637 2.02423L69.5036 10.0765L79.9363 2.02423L91.7649 11.1472L103.593 2.02423L115.429 11.1472L127.258 2.02423L137.698 10.071L139 9.05607L127.258 0Z" fill="url(#paint0_linear_18_389)"/>
<defs>
<linearGradient id="paint0_linear_18_389" x1="-0.00181925" y1="5.57641" x2="123.752" y2="5.53491" gradientUnits="userSpaceOnUse">
<stop stop-color="#FF4D4D"/>
<stop offset="0.984375" stop-color="#FFC263"/>
</linearGradient>
</defs>
</svg>
